# xmcd
#
# Track frame offsets:
#	150
#	43900
#	60570
#	71370
#	87077
#	99892
#	113645
#	132882
#	156800
#	176737
#	190307
#	212127
#
# Disc length: 3066
#
# Revision: 2
# Processed by: cddbd v1.5.1PL0 Copyright (c) Steve Scherf et al.
# Submitted via: FreeRIP 2.35 
# Normalized: r0:TDELIM( - ),TSWAP
#
DISCID=9f0bf80c
DTITLE=Various Artist - I Got The Blues
DYEAR=1994
DGENRE=Blues
TTITLE0=Stevie Ray Vaughan and Double Trouble - Voodoo Chile
TTITLE1=Johnny Winter - Tired of tryin'
TTITLE2=John Kay and Sparrow - Goin' to California
TTITLE3=Taj Mahal - She caught the katy and left me a mule to ride
TTITLE4=Johnny Otis and Delmar Evans - Goin' back to L.A.
TTITLE5=Edgar Winter - Fly away
TTITLE6=The Fabulous Thunderbirds - Twist of the knife
TTITLE7=Janis Joplin - To love somebody
TTITLE8=Muddy Waters - Mannish boy
TTITLE9=Rising sons - Dust my broom
TTITLE10=Willie Dixon - I'm your Hoochie Coochie Man
TTITLE11=Charles Brown - Driftin'
EXTD=
EXTT0=
EXTT1=
EXTT2=
EXTT3=
EXTT4=
EXTT5=
EXTT6=
EXTT7=
EXTT8=
EXTT9=
EXTT10=
EXTT11=
PLAYORDER=
